<?xml version="1.0" standalone="no"?><!DOCTYPE svg PUBLIC "-//W3C//DTD SVG 1.1//EN" "http://www.w3.org/Graphics/SVG/1.1/DTD/svg11.dtd"><svg t="1589899525104" class="icon" viewBox="0 0 1024 1024" version="1.1" xmlns="http://www.w3.org/2000/svg" p-id="2529" xmlns:xlink="http://www.w3.org/1999/xlink" width="64" height="64"><defs><style type="text/css"></style></defs><path d="M118.826971 138.409143a7.968041 7.968041 0 0 0 7.920612-7.920612V111.351003a7.920612 7.920612 0 1 0-15.841225 0v19.173099a7.968041 7.968041 0 0 0 7.920613 7.920613z m14.596218 14.596218h19.184956a7.920612 7.920612 0 1 0 0-15.841224H133.435046a7.920612 7.920612 0 1 0 0 15.841224z m-29.192437-15.781938H85.057653a7.920612 7.920612 0 0 0 0 15.841224h19.173099a7.920612 7.920612 0 0 0 0-15.841224z m14.596219 14.584361a7.968041 7.968041 0 0 0-7.920613 7.920612v19.173099a7.920612 7.920612 0 0 0 15.841225 0v-19.149385a7.968041 7.968041 0 0 0-7.920612-7.920612z m788.50407 118.27561a38.725628 38.725628 0 1 0 38.725628 38.725629 38.6782 38.6782 0 0 0-38.7612-38.784915z m0 61.49146a22.884404 22.884404 0 1 1 22.884403-22.884403 22.919975 22.919975 0 0 1-22.884403 22.884403zM692.525932 47.87939a23.500978 23.500978 0 1 0-23.500979-23.500978 23.500978 23.500978 0 0 0 23.500979 23.500978z m0-31.303019a7.671611 7.671611 0 1 1-7.671611 7.671611 7.707183 7.707183 0 0 1 7.671611-7.671611z m0 0" fill="#e6e6e6" p-id="2530"></path><path d="M275.768923 992.815553c0 11.145772 38.156483 21.342967 99.849516 26.963282a1197.186323 1197.186323 0 0 0 199.91246 0c61.906462-5.572886 99.849515-15.81751 99.849516-26.963282s-38.156483-21.342967-99.849516-26.963282a1197.020322 1197.020322 0 0 0-199.91246 0c-61.657461 5.572886-99.849515 15.81751-99.849516 26.963282z m0 0" fill="#f0f0f0" p-id="2531"></path><path d="M571.025162 482.896493a7.766469 7.766469 0 0 0-11.133915 0l-11.99949 11.99949-11.999491-11.99949a7.873183 7.873183 0 1 0-11.133914 11.133914l11.99949 11.999491-11.99949 11.99949a7.956184 7.956184 0 1 0 11.252486 11.252487l11.999491-11.999491 11.99949 11.999491a7.778326 7.778326 0 0 0 5.572886 2.371441 7.576753 7.576753 0 0 0 5.572886-2.371441 7.766469 7.766469 0 0 0 0-11.133915l-11.99949-11.99949 11.99949-11.999491a8.110328 8.110328 0 0 0-0.118572-11.252486z m-154.902514 46.397239a7.873183 7.873183 0 0 0 5.572886 2.371441 7.873183 7.873183 0 0 0 5.572886-13.481641l-11.999491-11.999491 11.999491-11.99949a7.766469 7.766469 0 0 0 0-11.133915 7.991756 7.991756 0 0 0-11.264344 0l-11.999491 11.999491-11.99949-11.999491a7.991756 7.991756 0 0 0-11.264344 0 7.766469 7.766469 0 0 0 0 11.133915l11.999491 11.99949-11.999491 11.999491a7.766469 7.766469 0 0 0 0 11.133915 7.778326 7.778326 0 0 0 5.572886 2.37144 7.576753 7.576753 0 0 0 5.572886-2.37144l11.99949-11.999491z m59.87888 83.391716a107.390697 107.390697 0 0 0-77.451256 32.65474 7.956184 7.956184 0 0 0 0.118572 11.133915 7.837612 7.837612 0 0 0 11.133914-0.118572 92.616621 92.616621 0 0 1 132.385684 0 8.157756 8.157756 0 0 0 5.691457 2.371441 7.825755 7.825755 0 0 0 7.304038-4.825882 8.01547 8.01547 0 0 0-1.61258-8.655759 107.758271 107.758271 0 0 0-77.569829-32.536168z m0 0" fill="#dbdbdb" p-id="2532"></path><path d="M768.601753 313.872049l-82.14671-91.679902a94.229201 94.229201 0 0 0-70.147219-31.303019H246.505344a85.905443 85.905443 0 0 0-85.858015 85.858015v564.651914a85.905443 85.905443 0 0 0 85.858015 85.858015h459.490372a85.905443 85.905443 0 0 0 85.858014-85.858015V374.616505a91.063327 91.063327 0 0 0-23.263834-60.744456z m-94.027628-81.162562l82.14671 91.679902a77.427543 77.427543 0 0 1 14.228645 23.263834h-85.490442a38.962773 38.962773 0 0 1-38.97463-38.97463v-95.877352a77.285256 77.285256 0 0 1 28.089717 19.920103z m101.450238 608.701428a70.123505 70.123505 0 0 1-70.028647 70.028647H246.505344a70.123505 70.123505 0 0 1-70.028647-70.028647V276.747143a70.123505 70.123505 0 0 1 70.028647-70.028647h369.80248a79.443267 79.443267 0 0 1 14.347217 1.363578v100.584662a54.910712 54.910712 0 0 0 54.803997 54.803997h89.699749a84.35215 84.35215 0 0 1 0.865576 11.133915v466.794409z m0 0" fill="#dbdbdb" p-id="2533"></path></svg>