<svg xmlns="http://www.w3.org/2000/svg" x="0px" y="0px"	 width="1em" height="1em" viewBox="0 0 1024 1024">
<g>
	<path fill="#198cff" d="M960,920c0,22.092-17.908,40-40,40H104c-22.091,0-40-17.908-40-40V104c0-22.091,17.909-40,40-40h816
		c22.092,0,40,17.909,40,40V920z"/>
</g>
<path fill="#ffffff" d="M451.216,708.784c-10.609,0-20.783-4.214-28.284-11.716l-181.019-181.02
	c-15.621-15.621-15.621-40.948,0-56.568c15.622-15.621,40.949-15.621,56.568,0l152.735,152.735l288.5-288.5
	c15.621-15.621,40.947-15.621,56.568,0c15.621,15.621,15.621,40.947,0,56.568L479.5,697.068
	C471.999,704.57,461.825,708.784,451.216,708.784z"/>
</svg>
