<svg xmlns="http://www.w3.org/2000/svg" x="0px" y="0px" width="1em" height="1em" viewBox="0 0 1024 1024">
<polygon fill="#FEF9EB" points="672,96 864,288 864,928 160,928 160,96 "/>
<g>
	<path fill="#ffc107" d="M670.862,144L816,289.138V880H208V144H670.862 M704,64H164.923C144.531,64,128,83.286,128,107.077v809.846
		C128,940.714,144.531,960,164.923,960h694.154C879.47,960,896,940.714,896,916.923V256L704,64L704,64z"/>
</g>
<g>
	<rect x="320" y="376" fill="#ffc107" width="288" height="80"/>
	<rect x="320" y="536" fill="#ffc107" width="384" height="80"/>
	<rect x="320" y="696" fill="#ffc107" width="384" height="80"/>
</g>
</svg>
