<svg xmlns="http://www.w3.org/2000/svg" x="0px" y="0px" width="1em" height="1em" viewBox="0 0 1024 1024">
<rect x="96" y="96" fill="#FFFFFF" width="832" height="832"/>
<path fill="#666666" d="M880,144v736H144V144H880 M920,64H104c-22.091,0-40,17.909-40,40v816c0,22.092,17.909,40,40,40h816
	c22.092,0,40-17.908,40-40V104C960,81.909,942.092,64,920,64L920,64z"/>
<polygon fill="#666666" points="776,472 552,472 552,248 472,248 472,472 248,472 248,552 472,552 472,776 552,776 552,552 776,552 
	"/>
</svg>
