<svg xmlns="http://www.w3.org/2000/svg" x="0px" y="0px"
	 width="1em" height="1em" viewBox="0 0 1024 1024">
<circle fill="#FFFFFF" cx="512" cy="512" r="416"/>
<path fill="#666666" d="M512,144c49.715,0,97.9,9.719,143.218,28.886c43.812,18.531,83.176,45.076,116.997,78.898
	c33.822,33.822,60.368,73.186,78.898,116.998C870.281,414.1,880,462.285,880,512s-9.719,97.9-28.887,143.218
	c-18.53,43.812-45.076,83.176-78.898,116.997c-33.821,33.822-73.186,60.368-116.997,78.898C609.9,870.281,561.715,880,512,880
	s-97.9-9.719-143.218-28.887c-43.812-18.53-83.175-45.076-116.998-78.898c-33.822-33.821-60.368-73.186-78.898-116.997
	C153.719,609.9,144,561.715,144,512s9.719-97.9,28.886-143.218c18.531-43.812,45.076-83.175,78.898-116.998
	s73.186-60.368,116.998-78.898C414.1,153.719,462.285,144,512,144 M512,64C264.576,64,64,264.576,64,512s200.576,448,448,448
	s448-200.576,448-448S759.424,64,512,64L512,64z"/>
</svg>
