<svg xmlns="http://www.w3.org/2000/svg"  x="0px" y="0px"
	 width="1em" height="1em" viewBox="0 0 1024 1024">
<path fill="#F3EBD5" d="M928,232c0-22.091-16.629-40-37.143-40H133.143C112.629,192,96,209.909,96,232v528
	c0,22.092,16.629,40,37.143,40h757.714C911.371,800,928,782.092,928,760V232z"/>
<path fill="#E09F22" d="M928,504c0,22.092-16.629,40-37.143,40H133.143C112.629,544,96,526.092,96,504V169.484
	c0-22.091,16.629-40,37.143-40c0,0,241.739,0,260,0c18.261,0,25.38,12.85,33.428,30.183C434.619,177,482.286,256,482.286,256
	h408.572C911.371,256,928,273.909,928,296V504z"/>
<path fill="#F5BB1C" d="M1024,447.579c0-17.441-16.629-31.579-37.143-31.579H101.143C80.629,416,64,430.138,64,447.579l32,416.843
	C96,881.861,112.629,896,133.143,896h757.714C911.371,896,928,881.861,928,864.422L1024,447.579z"/>
</svg>
