<svg xmlns="http://www.w3.org/2000/svg"  x="0px" y="0px" width="160px" height="160px" viewBox="0 0 160 160">
<rect fill="#FFFFFF" width="160" height="160"/>
<g>
	<g>
		<g>
			<path fill="#C9CACA" d="M79.087,87.86H61.983c-1.717,0-3.108-1.223-3.109-2.73v-2.111l9.163-6.958l3.284,2.841
				c1.708,1.486,4.422,1.585,6.262,0.228L93.07,67.625l6.226,5.479c0.628,0.591,0.892,0.858,1.58,0.858
				c0.493,0,0.904-0.244,1.219-0.587c0.333-0.363,0.311-1.238,0.311-1.672V57.81c0-3.018-2.783-5.465-6.218-5.465H61.983
				c-3.435,0-6.218,2.447-6.218,5.465v27.32c0,1.448,0.655,2.839,1.821,3.863c1.167,1.023,2.749,1.601,4.397,1.601h17.071
				c0.795,0,1.525-0.567,1.582-1.265c0.065-0.8-0.653-1.467-1.547-1.467L79.087,87.86z M58.875,57.81
				c0-1.509,1.392-2.732,3.109-2.732h34.203c1.718,0,3.109,1.223,3.109,2.732v11.434l-4.123-3.629
				c-1.152-0.857-2.84-0.86-3.996-0.008L75.587,77.029c-0.613,0.449-1.513,0.417-2.082-0.075l-3.287-2.84
				c-1.159-0.993-2.989-1.044-4.216-0.121l-7.127,5.42L58.875,57.81L58.875,57.81z M67.004,64.215c0,1.658,0.999,3.153,2.53,3.787
				c1.532,0.635,3.295,0.285,4.467-0.888c1.173-1.172,1.522-2.935,0.889-4.466c-0.635-1.531-2.129-2.531-3.787-2.531
				c-1.087,0-2.13,0.432-2.898,1.2C67.436,62.086,67.004,63.127,67.004,64.215L67.004,64.215z M102.338,79.737
				c3.737,3.733,3.737,9.786,0,13.52c-3.735,3.735-9.789,3.736-13.523,0c-3.682-3.744-3.655-9.754,0.057-13.463
				C92.583,76.082,98.595,76.056,102.338,79.737L102.338,79.737z M90.745,91.325c2.295,2.294,5.886,2.657,8.593,0.869l-9.462-9.464
				c-1.787,2.706-1.424,6.298,0.869,8.592V91.325z M101.272,90.259c1.782-2.708,1.416-6.295-0.875-8.585
				c-2.293-2.29-5.879-2.657-8.587-0.875L101.272,90.259z M101.272,90.259"/>
		</g>
	</g>
	<text transform="matrix(1 0 0 1 54.8237 110.5508)" fill="#C9CACA" font-family="'MicrosoftYaHei'" font-size="12.5877">暂无图片</text>
</g>
</svg>
